<svg width="307" height="230" viewBox="0 0 307 230" fill="none" xmlns="http://www.w3.org/2000/svg">
<path d="M41.722 195.212C40.882 195.212 40.42 194.75 40.42 193.91V191.978C40.42 191.138 40.882 190.676 41.722 190.676H58.606C59.446 190.676 59.908 191.138 59.908 191.978V193.91C59.908 194.75 59.446 195.212 58.606 195.212H52.768V219.698C52.768 220.538 52.306 221 51.508 221H48.82C47.98 221 47.518 220.538 47.518 219.698V195.212H41.722ZM86.7617 190.676C90.7097 190.676 93.2717 193.238 93.2717 197.144V201.092C93.2717 203.738 91.6337 205.964 88.9037 206.762C89.6177 207.434 90.2057 208.652 90.5417 209.786L93.7757 219.236C94.0277 220.16 93.6077 221 92.5997 221H89.7437C89.0297 221 88.6097 220.664 88.4837 220.16L85.0397 209.156C84.8297 208.484 84.0737 207.938 83.2757 207.938H81.5537V219.698C81.5537 220.538 81.0917 221 80.2517 221H77.6057C76.7657 221 76.3037 220.538 76.3037 219.698V191.978C76.3037 191.138 76.7657 190.676 77.5637 190.676H86.7617ZM81.5537 203.402H84.6197C86.8037 203.402 87.9797 202.268 87.9797 200.042V198.488C87.9797 196.262 86.8037 195.212 84.7037 195.212H82.1837C81.8477 195.212 81.5537 195.506 81.5537 195.8V203.402ZM123.62 190.676C124.292 190.676 124.67 191.096 124.796 191.642L131.012 219.53C131.138 220.286 130.676 221 129.836 221H126.854C126.266 221 125.846 220.622 125.72 220.034L124.67 215.246C124.628 214.952 124.376 214.7 124.04 214.7H116.9C116.564 214.7 116.354 214.91 116.27 215.246L115.22 220.034C115.136 220.58 114.716 221 114.044 221H111.44C110.558 221 110.096 220.244 110.264 219.53L116.438 191.642C116.564 191.054 116.9 190.676 117.572 190.676H123.62ZM117.236 210.164H123.704L120.47 195.086L117.236 210.164ZM147.799 197.144C147.799 193.28 150.361 190.676 154.267 190.676H161.827C162.667 190.676 163.129 191.138 163.129 191.978V193.91C163.129 194.75 162.667 195.212 161.785 195.212H156.367C154.225 195.212 153.049 196.346 153.049 198.572V213.104C153.049 215.288 154.225 216.464 156.451 216.464H161.827C162.667 216.464 163.129 216.926 163.129 217.766V219.698C163.129 220.538 162.667 221 161.827 221H154.267C150.319 221 147.799 218.396 147.799 214.532V197.144ZM184.269 190.676C185.109 190.676 185.571 191.138 185.571 191.978V203.402H187.293C188.091 203.402 188.805 202.856 189.015 202.1L192.417 191.558C192.543 191.054 192.963 190.676 193.677 190.676H196.491C197.499 190.676 197.961 191.516 197.667 192.44L194.139 203.024C193.803 204.116 193.131 204.956 192.291 205.67C193.131 206.3 193.803 207.182 194.139 208.274L197.793 219.236C198.087 220.244 197.583 221 196.617 221H193.803C193.047 221 192.627 220.58 192.501 220.118L189.015 209.156C188.805 208.484 188.091 207.938 187.293 207.938H185.571V219.698C185.571 220.538 185.109 221 184.269 221H181.581C180.783 221 180.321 220.538 180.321 219.698V191.978C180.321 191.138 180.783 190.676 181.581 190.676H184.269ZM227.217 203.402C228.015 203.402 228.477 203.864 228.477 204.704V206.636C228.477 207.476 228.057 207.938 227.175 207.938H220.749V215.876C220.749 216.212 220.959 216.464 221.337 216.464H229.149C229.947 216.464 230.409 216.926 230.409 217.724V219.74C230.409 220.538 229.947 221 229.191 221H216.759C215.961 221 215.499 220.538 215.499 219.74V191.936C215.499 191.138 215.919 190.676 216.759 190.676H229.149C229.947 190.676 230.409 191.138 230.409 191.936V193.952C230.409 194.75 229.947 195.212 229.149 195.212H221.379C220.959 195.212 220.749 195.464 220.749 195.842V203.402H227.217ZM258.1 190.676C262.048 190.676 264.61 193.238 264.61 197.144V201.092C264.61 203.738 262.972 205.964 260.242 206.762C260.956 207.434 261.544 208.652 261.88 209.786L265.114 219.236C265.366 220.16 264.946 221 263.938 221H261.082C260.368 221 259.948 220.664 259.822 220.16L256.378 209.156C256.168 208.484 255.412 207.938 254.614 207.938H252.892V219.698C252.892 220.538 252.43 221 251.59 221H248.944C248.104 221 247.642 220.538 247.642 219.698V191.978C247.642 191.138 248.104 190.676 248.902 190.676H258.1ZM252.892 203.402H255.958C258.142 203.402 259.318 202.268 259.318 200.042V198.488C259.318 196.262 258.142 195.212 256.042 195.212H253.522C253.186 195.212 252.892 195.506 252.892 195.8V203.402Z" fill="#079272"/>
<path d="M60.0886 2.81012C33.1553 11.4768 12.3553 32.5434 2.75529 60.9434C-1.11137 72.1434 -0.844707 99.6101 3.15529 112.277C9.15529 131.21 24.622 150.81 41.2886 160.677C66.7553 175.877 99.1553 177.077 125.955 163.61C144.755 154.143 160.755 136.277 168.222 116.277C171.022 108.81 171.289 106.943 169.955 105.077C169.022 103.877 160.222 94.4101 150.355 83.8768L132.355 64.9434L109.689 65.2101L86.8886 65.6101L86.4886 85.8768L86.0886 106.277H106.889C118.222 106.277 127.555 106.81 127.555 107.343C127.555 109.61 119.955 118.943 115.422 122.41C108.355 127.877 103.289 130.01 94.0886 131.743C73.6886 135.477 53.822 124.81 44.3553 104.943C40.7553 97.4768 40.222 94.8101 40.222 85.6101C40.222 76.1434 40.7553 73.7434 44.622 66.0101C49.422 56.1434 57.2886 48.2768 67.2886 43.4768C72.4886 40.9435 76.4886 40.2768 90.622 39.7434L107.822 38.9435L89.6886 19.6101C79.822 8.94345 71.1553 0.143448 70.622 0.0101166C70.0886 -0.123215 65.2886 1.07678 60.0886 2.81012Z" fill="#079272"/>
<path d="M197 4.19673C172.333 10.7301 149.133 30.1967 139.667 52.3301L137 58.3301L154.6 77.1301L172.067 95.7967L172.867 85.6634C174.6 63.7967 188.467 47.7967 209.933 42.8634C231.267 37.9301 255.667 51.1301 263.4 71.9301C267.8 83.6634 267.4 96.4634 262.333 107.397C254.333 124.463 240.333 133.797 221.4 134.597C205.533 135.263 197.4 131.93 185.8 120.063C180.6 114.73 176.733 111.663 176.733 112.863C176.733 116.597 168.867 132.33 162.6 141.13L156.333 149.797L160.2 152.997C173.667 164.197 186.867 170.863 202.467 174.063C222.067 178.197 239.267 175.797 259 166.063C279.933 155.93 295 138.463 303 114.997C305.933 106.463 306.467 102.33 306.6 89.5301C306.733 72.3301 304.067 60.8634 296.333 46.1967C290.2 34.7301 273.133 17.9301 261.133 11.7967C241.667 1.66341 217.533 -1.1366 197 4.19673Z" fill="#079272"/>
<path d="M218.762 61.1612C216.138 61.4543 212.969 62.4874 210.512 63.8554C204.523 67.2058 200.587 72.8595 199.246 80.0488C198.953 81.6262 198.911 86.1213 199.177 87.6568C199.819 91.3282 201.061 94.4971 202.96 97.3728C203.923 98.8246 220.032 118.424 220.535 118.759C221.024 119.08 222.336 119.08 222.824 118.759C223.313 118.438 239.437 98.8246 240.4 97.3728C242.298 94.4971 243.541 91.3282 244.183 87.6568C244.448 86.1073 244.406 81.6402 244.113 80.0208C243.066 74.423 240.386 69.6627 236.351 66.2844C231.535 62.2361 225.323 60.4353 218.762 61.1612ZM223.55 74.6044C227.585 75.456 230.614 79.1972 230.614 83.3293C230.614 88.3967 226.245 92.5148 221.191 92.2217C218.86 92.0821 217.031 91.2445 215.3 89.5274C213.22 87.4474 212.327 84.3902 212.955 81.4587C213.96 76.6984 218.762 73.5854 223.55 74.6044Z" fill="#079272"/>
</svg>
