<svg width="45" height="33" viewBox="0 0 45 33" fill="none" xmlns="http://www.w3.org/2000/svg">
<path d="M6.11559 28.8574C5.99246 28.8574 5.92474 28.7891 5.92474 28.665V28.3794C5.92474 28.2552 5.99246 28.1869 6.11559 28.1869H8.59044C8.71357 28.1869 8.78129 28.2552 8.78129 28.3794V28.665C8.78129 28.7891 8.71357 28.8574 8.59044 28.8574H7.73471V32.4771C7.73471 32.6013 7.66699 32.6696 7.55002 32.6696H7.15601C7.03289 32.6696 6.96517 32.6013 6.96517 32.4771V28.8574H6.11559ZM12.7175 28.1869C13.2962 28.1869 13.6717 28.5656 13.6717 29.143V29.7266C13.6717 30.1178 13.4316 30.4469 13.0315 30.5648C13.1361 30.6642 13.2223 30.8442 13.2716 31.0118L13.7456 32.4088C13.7826 32.5454 13.721 32.6696 13.5732 32.6696H13.1546C13.0499 32.6696 12.9884 32.6199 12.9699 32.5454L12.4651 30.9187C12.4343 30.8194 12.3235 30.7387 12.2065 30.7387H11.9541V32.4771C11.9541 32.6013 11.8864 32.6696 11.7633 32.6696H11.3754C11.2523 32.6696 11.1846 32.6013 11.1846 32.4771V28.3794C11.1846 28.2552 11.2523 28.1869 11.3693 28.1869H12.7175ZM11.9541 30.0681H12.4035C12.7237 30.0681 12.896 29.9005 12.896 29.5714V29.3417C12.896 29.0126 12.7237 28.8574 12.4158 28.8574H12.0465C11.9972 28.8574 11.9541 28.9009 11.9541 28.9444V30.0681ZM18.1202 28.1869C18.2187 28.1869 18.2741 28.249 18.2926 28.3297L19.2037 32.4523C19.2222 32.564 19.1545 32.6696 19.0313 32.6696H18.5942C18.508 32.6696 18.4465 32.6137 18.428 32.5268L18.2741 31.819C18.2679 31.7755 18.231 31.7383 18.1817 31.7383H17.1352C17.0859 31.7383 17.0551 31.7693 17.0428 31.819L16.8889 32.5268C16.8766 32.6075 16.815 32.6696 16.7165 32.6696H16.3348C16.2056 32.6696 16.1378 32.5578 16.1625 32.4523L17.0674 28.3297C17.0859 28.2428 17.1352 28.1869 17.2337 28.1869H18.1202ZM17.1844 31.0677H18.1325L17.6585 28.8388L17.1844 31.0677ZM21.6643 29.143C21.6643 28.5718 22.0399 28.1869 22.6124 28.1869H23.7206C23.8437 28.1869 23.9114 28.2552 23.9114 28.3794V28.665C23.9114 28.7891 23.8437 28.8574 23.7144 28.8574H22.9202C22.6063 28.8574 22.4339 29.0251 22.4339 29.3541V31.5023C22.4339 31.8252 22.6063 31.999 22.9325 31.999H23.7206C23.8437 31.999 23.9114 32.0673 23.9114 32.1915V32.4771C23.9114 32.6013 23.8437 32.6696 23.7206 32.6696H22.6124C22.0337 32.6696 21.6643 32.2846 21.6643 31.7134V29.143ZM27.0101 28.1869C27.1332 28.1869 27.2009 28.2552 27.2009 28.3794V30.0681H27.4534C27.5703 30.0681 27.675 29.9874 27.7058 29.8757L28.2044 28.3173C28.2229 28.2428 28.2845 28.1869 28.3891 28.1869H28.8016C28.9494 28.1869 29.0171 28.3111 28.974 28.4477L28.4568 30.0122C28.4076 30.1737 28.3091 30.2978 28.186 30.4034C28.3091 30.4965 28.4076 30.6269 28.4568 30.7883L28.9924 32.4088C29.0355 32.5578 28.9617 32.6696 28.8201 32.6696H28.4076C28.2968 32.6696 28.2352 32.6075 28.2167 32.5392L27.7058 30.9187C27.675 30.8194 27.5703 30.7387 27.4534 30.7387H27.2009V32.4771C27.2009 32.6013 27.1332 32.6696 27.0101 32.6696H26.6161C26.4991 32.6696 26.4314 32.6013 26.4314 32.4771V28.3794C26.4314 28.2552 26.4991 28.1869 26.6161 28.1869H27.0101ZM33.3054 30.0681C33.4224 30.0681 33.4901 30.1364 33.4901 30.2606V30.5462C33.4901 30.6704 33.4285 30.7387 33.2993 30.7387H32.3573V31.9121C32.3573 31.9618 32.3881 31.999 32.4435 31.999H33.5886C33.7056 31.999 33.7733 32.0673 33.7733 32.1853V32.4833C33.7733 32.6013 33.7056 32.6696 33.5948 32.6696H31.7725C31.6555 32.6696 31.5878 32.6013 31.5878 32.4833V28.3732C31.5878 28.2552 31.6494 28.1869 31.7725 28.1869H33.5886C33.7056 28.1869 33.7733 28.2552 33.7733 28.3732V28.6712C33.7733 28.7891 33.7056 28.8574 33.5886 28.8574H32.4497C32.3881 28.8574 32.3573 28.8947 32.3573 28.9506V30.0681H33.3054ZM37.8322 28.1869C38.4109 28.1869 38.7865 28.5656 38.7865 29.143V29.7266C38.7865 30.1178 38.5464 30.4469 38.1462 30.5648C38.2509 30.6642 38.3371 30.8442 38.3863 31.0118L38.8603 32.4088C38.8973 32.5454 38.8357 32.6696 38.688 32.6696H38.2693C38.1647 32.6696 38.1031 32.6199 38.0846 32.5454L37.5798 30.9187C37.549 30.8194 37.4382 30.7387 37.3213 30.7387H37.0688V32.4771C37.0688 32.6013 37.0011 32.6696 36.878 32.6696H36.4902C36.367 32.6696 36.2993 32.6013 36.2993 32.4771V28.3794C36.2993 28.2552 36.367 28.1869 36.484 28.1869H37.8322ZM37.0688 30.0681H37.5183C37.8384 30.0681 38.0108 29.9005 38.0108 29.5714V29.3417C38.0108 29.0126 37.8384 28.8574 37.5306 28.8574H37.1612C37.1119 28.8574 37.0688 28.9009 37.0688 28.9444V30.0681Z" fill="#079272"/>
<path d="M8.96211 0.890991L8.96212 0.891017L8.9671 0.889344C9.3382 0.764592 9.69394 0.659434 9.96349 0.588517C10.0545 0.56457 10.1335 0.545122 10.1984 0.53033C10.2196 0.550632 10.2429 0.573248 10.2684 0.598206C10.4165 0.743051 10.6243 0.953151 10.8769 1.21409C11.3816 1.73527 12.0576 2.45138 12.7781 3.23685L12.778 3.23686L12.7804 3.23939L14.7042 5.30792L13.2621 5.37555C11.194 5.45432 10.5102 5.55227 9.64397 5.9776C8.07723 6.73639 6.84362 7.98059 6.09154 9.53829C5.80629 10.1138 5.6218 10.5334 5.51759 11.0021C5.41413 11.4674 5.39573 11.9548 5.39573 12.6554C5.39573 13.3378 5.41438 13.8217 5.51149 14.2834C5.60957 14.7497 5.78212 15.1676 6.05 15.7279C7.526 18.8508 10.6498 20.5634 13.8823 19.9667L13.8848 19.9663C15.3026 19.6969 16.1205 19.352 17.225 18.4904C17.6029 18.1987 18.0758 17.691 18.447 17.228C18.6353 16.9932 18.8083 16.7565 18.937 16.5496C19.001 16.4468 19.0597 16.3425 19.104 16.2436C19.1412 16.1607 19.197 16.0213 19.197 15.8681C19.197 15.6716 19.0889 15.5462 19.0339 15.4949C18.9773 15.4422 18.9211 15.4136 18.8941 15.4009C18.8367 15.3739 18.7816 15.3597 18.751 15.3523C18.6818 15.3358 18.599 15.3236 18.5167 15.3138C18.3464 15.2934 18.1109 15.2755 17.8322 15.2605C17.2717 15.2303 16.5052 15.2105 15.6678 15.2105H13.1287L13.1774 12.7046L13.1774 12.7045L13.2266 10.1903L16.0841 10.1397L16.087 10.1397L19.1872 10.1029L21.6727 12.7395C21.673 12.7399 21.6734 12.7403 21.6738 12.7407C22.3963 13.5185 23.0791 14.2564 23.5983 14.8217C23.8581 15.1047 24.0762 15.3436 24.2375 15.5224C24.3182 15.6119 24.3838 15.6854 24.4329 15.7413C24.4575 15.7693 24.4771 15.792 24.492 15.8096L24.5096 15.8305C24.5099 15.8308 24.5101 15.8311 24.5103 15.8314C24.5225 15.8498 24.5233 15.8557 24.5234 15.8568L24.5234 15.8569C24.5246 15.8625 24.5303 15.8935 24.5179 15.9754C24.4902 16.1574 24.3976 16.4543 24.1893 17.0145L24.1891 17.0152C23.1376 19.8553 20.8781 22.3981 18.2364 23.7398C14.4612 25.6531 9.89481 25.4817 6.30993 23.3239L6.30839 23.3229C3.97389 21.9291 1.78336 19.1329 0.939543 16.4477C0.668304 15.5812 0.512823 14.1559 0.500758 12.7177C0.48864 11.2731 0.622233 9.91495 0.87692 9.17096L0.876929 9.17096L0.877948 9.16792C2.23856 5.10856 5.17604 2.11964 8.96211 0.890991Z" stroke="#079272"/>
<path d="M24.8403 12.6243L24.8121 12.9848L23.0278 11.0617L23.0277 11.0617L20.6716 8.5235L20.9299 7.9374L20.9299 7.93742L20.9327 7.93095C22.2562 4.80997 25.5284 2.03259 29.0041 1.10375C31.8897 0.348193 35.2989 0.745187 38.0444 2.18656L38.0477 2.18828C38.8637 2.60889 39.8875 3.41767 40.8277 4.34651C41.7677 5.27513 42.578 6.27818 42.994 7.06206C44.0869 9.15256 44.4603 10.7659 44.4414 13.2309C44.4222 15.0926 44.3469 15.6456 43.9404 16.8383L43.94 16.8394C42.8068 20.1917 40.6841 22.6642 37.7448 24.0991L37.7415 24.1008C34.9402 25.4943 32.5338 25.8274 29.7816 25.242L29.7789 25.2414C27.5837 24.7873 25.7227 23.8437 23.8034 22.2338L23.8024 22.2331L23.5923 22.0577L24.2402 21.154L24.2423 21.1511C24.7209 20.4733 25.2516 19.5427 25.6621 18.7146C25.8679 18.2996 26.0476 17.902 26.1772 17.5676C26.1917 17.5301 26.2058 17.493 26.2192 17.4566C26.4033 17.6226 26.6262 17.8386 26.8751 18.096L26.8755 18.0964C27.7474 18.996 28.5266 19.6122 29.4186 19.9797C30.3132 20.3483 31.2737 20.4473 32.4739 20.3965L32.474 20.3965C35.4372 20.2702 37.6553 18.7779 38.9061 16.0868L38.907 16.0848C39.7073 14.3434 39.7672 12.3134 39.078 10.4595C37.8591 7.15424 34.0371 5.06183 30.659 5.84923C27.2992 6.62795 25.1114 9.17512 24.8403 12.6241L24.8403 12.6243Z" stroke="#079272"/>
<path d="M32.0661 9.04122C31.6815 9.08455 31.217 9.23727 30.8568 9.43949C29.979 9.93477 29.402 10.7705 29.2055 11.8333C29.1625 12.0665 29.1564 12.731 29.1953 12.958C29.2894 13.5007 29.4715 13.9691 29.7499 14.3942C29.891 14.6089 32.2523 17.5062 32.326 17.5557C32.3977 17.6031 32.59 17.6031 32.6615 17.5557C32.7332 17.5082 35.0966 14.6089 35.2378 14.3942C35.516 13.9691 35.6982 13.5007 35.7923 12.958C35.8312 12.7289 35.825 12.0685 35.7821 11.8292C35.6286 11.0017 35.2358 10.298 34.6443 9.79856C33.9384 9.20012 33.0278 8.93391 32.0661 9.04122ZM32.7679 11.0285C33.3594 11.1544 33.8034 11.7074 33.8034 12.3182C33.8034 13.0673 33.163 13.6761 32.4222 13.6328C32.0805 13.6121 31.8124 13.4883 31.5587 13.2345C31.2538 12.927 31.1229 12.4751 31.2149 12.0417C31.3622 11.338 32.0661 10.8778 32.7679 11.0285Z" fill="#079272"/>
</svg>
